<svg width="53" height="56" viewBox="0 0 53 56" fill="none" xmlns="http://www.w3.org/2000/svg">
<path d="M40.0508 37.6014V42.4828C40.0508 44.2184 42.2203 45.5201 44.9322 45.5201C47.6441 45.5201 49.8136 44.2184 49.8136 42.4828V36.5166L40.0508 37.6014Z" fill="#0ABB92"/>
<path d="M2.62695 28.4897V42.483C2.62695 44.544 5.23037 46.0627 8.59311 46.0627C11.9559 46.0627 14.5593 44.4355 14.5593 42.483V27.2964L2.62695 28.4897Z" fill="#0ABB92"/>
<path d="M21.5 38.6863V52.0288C21.5 53.8729 23.9949 55.5 27.1407 55.5C30.2865 55.5 32.7815 53.8729 32.7815 52.0288V37.6016L21.5 38.6863Z" fill="#0ABB92"/>
<path d="M21.5 34.5638V47.9062C21.5 49.7503 23.9949 51.3775 27.1407 51.3775C30.2865 51.3775 32.7815 49.7503 32.7815 47.9062V33.479L21.5 34.5638Z" fill="#0ABB92"/>
<path d="M51.5488 29.6828C49.4878 42.1575 38.5317 49.9677 24.1045 47.4728C9.67723 44.9778 -1.82119 29.5743 0.239847 17.0996C2.30088 4.62491 15.5349 -1.9921 29.7452 1.37064C42.9792 4.40796 53.5014 17.3165 51.5488 29.6828Z" fill="#66E3C4"/>
<path d="M29.6357 1.37084C26.056 0.503037 22.2594 0.394561 18.6797 0.828464C19.656 0.93694 20.7407 1.15389 21.717 1.37084C35.168 4.40816 40.3748 22.0897 40.4833 34.7813C40.4833 37.8186 34.3002 46.9306 21.3916 47.0391C38.8562 51.0527 49.4868 41.8322 51.4393 29.683C53.7173 17.3167 42.9782 4.40816 29.6357 1.37084Z" fill="#0ABB92"/>
<path d="M29.6364 1.37026C19.982 -0.799248 10.6531 1.47874 5.22934 7.33642C5.12086 19.3772 15.7515 32.9366 29.4194 35.1062C38.9653 36.7333 47.1009 33.8044 51.9823 28.1637C52.6332 16.1229 42.4365 4.29911 29.6364 1.37026Z" fill="white"/>
<path d="M39.5088 20.4619C37.3392 18.2923 32.6748 18.8347 30.8307 21.3296C29.2036 23.3907 29.529 29.1399 32.6748 30.4416C33.7596 25.8856 36.146 22.3059 39.5088 20.4619Z" fill="#66E3C4"/>
<path d="M50.6808 20.7877C50.7893 20.6792 50.7893 20.4622 51.0063 20.2453C52.308 17.208 51.8741 14.0622 50.03 13.1944C49.7045 13.0859 49.5961 13.0859 49.2706 13.0859C48.4028 12.9774 45.3655 13.0859 43.6299 13.8453H43.5214V13.9537C43.0875 15.2554 42.7621 17.425 43.413 19.269C43.9553 19.1606 44.3892 19.1605 45.0401 19.1605C46.8842 18.8351 48.9452 19.5944 50.6808 20.7877Z" fill="white"/>
<path d="M44.8224 18.8355C46.8835 18.8355 48.836 19.3778 50.5717 20.5711C50.6801 20.4626 50.6801 20.2456 50.8971 20.0287C52.1988 16.9914 51.7649 13.8456 49.9208 12.9778C48.0767 12.11 45.2564 13.8456 43.9546 16.8829C43.6292 17.6423 43.4123 18.1846 43.1953 18.9439C43.7377 19.0524 44.2801 18.8355 44.8224 18.8355Z" fill="#66E3C4"/>
<path d="M20.2002 1.91309C19.2239 2.45546 18.3561 3.10629 17.4883 3.64867C23.6714 5.05885 29.3121 8.74704 33.4342 13.6284C34.4105 12.8691 35.2783 12.3267 36.4715 11.7843C32.024 6.90294 26.3833 3.43174 20.2002 1.91309Z" fill="#66E3C4"/>
<path d="M32.5667 30.2249C33.543 25.8858 36.1464 22.3061 39.4006 20.2451L38.9667 19.8112C37.2311 18.618 34.1938 19.8112 32.3497 22.74C30.5056 25.4519 30.2887 28.8147 32.2413 30.0079C32.2413 30.1164 32.4582 30.2249 32.5667 30.2249Z" fill="white"/>
<path d="M42.871 43.0249C44.932 44.2181 48.1863 42.0486 50.3558 38.3604C52.5253 34.5638 52.6338 30.6587 50.6812 29.5739L48.9456 28.7061C46.7761 27.5128 43.1964 29.4654 41.0269 33.0451C38.9658 36.6248 38.8574 40.313 40.9184 41.7231L42.871 43.0249Z" fill="white"/>
<path d="M50.3565 38.3608C52.5261 34.5641 52.6345 30.659 50.682 29.5743C48.6209 28.3811 45.3667 30.5506 43.1971 34.2387C41.0276 38.0354 40.9192 41.9405 42.8717 43.0252C44.8243 44.11 48.187 41.9405 50.3565 38.3608Z" fill="#66E3C4"/>
<path d="M41.7864 37.4933L39.5084 36.6255C39.0745 38.795 39.5084 40.6391 40.8101 41.5069L42.6542 42.8085C41.5694 41.9407 41.244 39.7713 41.7864 37.4933Z" fill="#66E3C4"/>
<path d="M39.3984 38.2524C39.3984 39.6626 39.8323 40.8558 40.8086 41.6152L42.6527 42.9169C41.7849 42.1575 41.351 40.8559 41.4595 39.3372L39.3984 38.2524Z" fill="#0ABB92"/>
<path d="M45.5833 38.903C46.0172 38.1437 46.0172 37.2759 45.5833 37.1674C45.1494 36.842 44.607 37.2759 44.1731 38.0352C43.7392 38.7945 43.7392 39.6623 44.1731 39.7708C44.39 40.0962 45.1494 39.6623 45.5833 38.903Z" fill="#0ABB92"/>
<path d="M50.6809 34.9978C51.1148 34.2385 51.1148 33.3706 50.6809 33.2622C50.247 32.9367 49.7046 33.3706 49.2707 34.1299C48.8368 34.8893 48.8368 35.7571 49.2707 35.8656C49.4877 36.191 50.247 35.7571 50.6809 34.9978Z" fill="#0ABB92"/>
</svg>
