<svg width="45" height="41" viewBox="0 0 45 41" fill="none" xmlns="http://www.w3.org/2000/svg">
<g clip-path="url(#clip0_7315_44777)">
<path d="M31.6992 11.5027C31.6992 13.5489 34.5211 15.209 37.9989 15.209C41.4766 15.209 44.2985 13.5489 44.2985 11.5027V14.1935C44.2985 16.2396 41.4766 17.8998 37.9989 17.8998C34.5211 17.8998 31.6992 16.2396 31.6992 14.1935V11.5027Z" fill="#66E3C4"/>
<path d="M38.0067 17.5758C34.5289 17.5758 31.707 15.9156 31.707 13.8657V14.1917C31.707 16.2379 34.5289 17.898 38.0067 17.898C41.4844 17.898 44.3063 16.2379 44.3063 14.1917V13.8582C44.2989 15.9156 41.4769 17.5758 38.0067 17.5758Z" fill="#66E3C4"/>
<path d="M38.7305 18.1652C39.7702 18.1025 40.7917 17.8629 41.751 17.4569V14.7625C40.7928 15.1717 39.7707 15.4114 38.7305 15.4707V18.1652Z" fill="white"/>
<path d="M31.6992 14.1843C31.6992 16.2342 34.5211 17.8944 37.9989 17.8944C41.4766 17.8944 44.2985 16.2342 44.2985 14.1843V16.8789C44.2985 18.925 41.4766 20.5852 37.9989 20.5852C34.5211 20.5852 31.6992 18.925 31.6992 16.8789V14.1843Z" fill="#66E3C4"/>
<path d="M38.0067 20.2598C34.5289 20.2598 31.707 18.5996 31.707 16.5535V16.8795C31.707 18.9257 34.5289 20.5859 38.0067 20.5859C41.4844 20.5859 44.3063 18.9257 44.3063 16.8795V16.5535C44.2989 18.5996 41.4769 20.2598 38.0067 20.2598Z" fill="#66E3C4"/>
<path d="M38.7305 20.5599C39.7713 20.4988 40.7941 20.2605 41.7548 19.8554V17.1609C40.7965 17.5702 39.7745 17.8098 38.7342 17.8691L38.7305 20.5599Z" fill="white"/>
<path d="M31.6992 16.8796C31.6992 18.9258 34.5211 20.5859 37.9989 20.5859C41.4766 20.5859 44.2985 18.9258 44.2985 16.8796V19.5704C44.2985 21.6165 41.4766 23.2767 37.9989 23.2767C34.5211 23.2767 31.6992 21.6165 31.6992 19.5704V16.8796Z" fill="#66E3C4"/>
<path d="M38.0067 22.955C34.5289 22.955 31.707 21.2948 31.707 19.2449V19.5709C31.707 21.6171 34.5289 23.2773 38.0067 23.2773C41.4844 23.2773 44.3063 21.6171 44.3063 19.5709V19.2449C44.2989 21.2948 41.4769 22.955 38.0067 22.955Z" fill="#66E3C4"/>
<path d="M38.7305 23.2496C39.7705 23.1886 40.7923 22.949 41.751 22.5413V19.8542C40.7917 20.2603 39.7702 20.4998 38.7305 20.5625V23.2496Z" fill="white"/>
<path d="M31.6992 19.5632C31.6992 21.6132 34.5211 23.2733 37.9989 23.2733C41.4766 23.2733 44.2985 21.6132 44.2985 19.5632V22.2578C44.2985 24.3039 41.4766 25.9641 37.9989 25.9641C34.5211 25.9641 31.6992 24.3039 31.6992 22.2578V19.5632Z" fill="#66E3C4"/>
<path d="M38.0067 25.6424C34.5289 25.6424 31.707 23.9823 31.707 21.9324V22.2584C31.707 24.3046 34.5289 25.9648 38.0067 25.9648C41.4844 25.9648 44.3063 24.3046 44.3063 22.2584V21.9324C44.2989 23.9785 41.4769 25.6424 38.0067 25.6424Z" fill="#66E3C4"/>
<path d="M38.7305 25.9388C39.7702 25.8761 40.7917 25.6365 41.751 25.2305V22.5398C40.7917 22.9458 39.7702 23.1853 38.7305 23.2481V25.9388Z" fill="white"/>
<path d="M37.9989 15.2044C41.4781 15.2044 44.2985 13.545 44.2985 11.4981C44.2985 9.45113 41.4781 7.79175 37.9989 7.79175C34.5197 7.79175 31.6992 9.45113 31.6992 11.4981C31.6992 13.545 34.5197 15.2044 37.9989 15.2044Z" fill="white"/>
</g>
<g clip-path="url(#clip1_7315_44777)">
<path d="M31.6992 3.72925C31.6992 5.77542 34.5211 7.4356 37.9989 7.4356C41.4766 7.4356 44.2985 5.77542 44.2985 3.72925V6.42002C44.2985 8.46619 41.4766 10.1264 37.9989 10.1264C34.5211 10.1264 31.6992 8.46619 31.6992 6.42002V3.72925Z" fill="#66E3C4"/>
<path d="M38.0067 9.80232C34.5289 9.80232 31.707 8.14214 31.707 6.09222V6.41826C31.707 8.46443 34.5289 10.1246 38.0067 10.1246C41.4844 10.1246 44.3063 8.46443 44.3063 6.41826V6.08472C44.2989 8.14213 41.4769 9.80232 38.0067 9.80232Z" fill="#66E3C4"/>
<path d="M38.7305 10.3918C39.7702 10.329 40.7917 10.0895 41.751 9.68349V6.98901C40.7928 7.39829 39.7707 7.63796 38.7305 7.69731V10.3918Z" fill="white"/>
<path d="M31.6992 6.41089C31.6992 8.46081 34.5211 10.121 37.9989 10.121C41.4766 10.121 44.2985 8.46081 44.2985 6.41089V9.10541C44.2985 11.1516 41.4766 12.8117 37.9989 12.8117C34.5211 12.8117 31.6992 11.1516 31.6992 9.10541V6.41089Z" fill="#66E3C4"/>
<path d="M38.0067 12.4864C34.5289 12.4864 31.707 10.8262 31.707 8.78003V9.10611C31.707 11.1523 34.5289 12.8124 38.0067 12.8124C41.4844 12.8124 44.3063 11.1523 44.3063 9.10611V8.78003C44.2989 10.8262 41.4769 12.4864 38.0067 12.4864Z" fill="#66E3C4"/>
<path d="M38.7305 12.7865C39.7713 12.7253 40.7941 12.4871 41.7548 12.0819V9.38745C40.7965 9.79673 39.7745 10.0364 38.7342 10.0957L38.7305 12.7865Z" fill="white"/>
<path d="M31.6992 9.1062C31.6992 11.1524 34.5211 12.8125 37.9989 12.8125C41.4766 12.8125 44.2985 11.1524 44.2985 9.1062V11.7969C44.2985 13.8431 41.4766 15.5033 37.9989 15.5033C34.5211 15.5033 31.6992 13.8431 31.6992 11.7969V9.1062Z" fill="#66E3C4"/>
<path d="M38.0067 15.1815C34.5289 15.1815 31.707 13.5214 31.707 11.4714V11.7975C31.707 13.8436 34.5289 15.5038 38.0067 15.5038C41.4844 15.5038 44.3063 13.8436 44.3063 11.7975V11.4714C44.2989 13.5214 41.4769 15.1815 38.0067 15.1815Z" fill="#66E3C4"/>
<path d="M38.7305 15.4761C39.7705 15.4151 40.7923 15.1755 41.751 14.7678V12.0808C40.7917 12.4868 39.7702 12.7263 38.7305 12.7891V15.4761Z" fill="white"/>
<path d="M37.9989 7.431C41.4781 7.431 44.2985 5.77161 44.2985 3.72465C44.2985 1.6777 41.4781 0.0183105 37.9989 0.0183105C34.5197 0.0183105 31.6992 1.6777 31.6992 3.72465C31.6992 5.77161 34.5197 7.431 37.9989 7.431Z" fill="white"/>
</g>
<path d="M12.4648 21.3436L33.8109 33.6727L44.4154 27.5619V20.8364L23.0693 8.50732L12.4648 14.6181V21.3436Z" fill="#0ABB92"/>
<path d="M44.4154 20.8364L33.8109 26.9472L12.4648 14.6181L23.0693 8.50732L44.4154 20.8364Z" fill="#66E3C4"/>
<path d="M37.8565 16.9869L27.2521 23.0977L19.0586 18.4072L29.657 12.2964L37.8565 16.9869Z" fill="white"/>
<path d="M27.2346 29.9846L27.2466 23.098L19.0531 18.4075L19.0352 25.2941L27.2346 29.9846Z" fill="white"/>
<path d="M43.0551 20.0493C42.9012 20.1173 42.7682 20.225 42.6696 20.3613C42.571 20.4976 42.5105 20.6577 42.4941 20.8251C42.5136 20.998 42.5792 21.1624 42.6843 21.301C42.7893 21.4396 42.9298 21.5474 43.0909 21.6128L44.4336 20.837L43.0551 20.0493Z" fill="#0ABB92"/>
<path d="M33.816 26.9469L35.469 25.9981C35.2701 25.7698 35.0197 25.5922 34.7384 25.4801C34.4571 25.368 34.1532 25.3246 33.8518 25.3536C33.5463 25.323 33.2379 25.3679 32.9538 25.4845C32.6698 25.601 32.4187 25.7856 32.2227 26.0219L33.816 26.9469Z" fill="#0ABB92"/>
<path d="M13.8388 15.4175C14.0031 15.3631 14.1461 15.2582 14.2475 15.1179C14.3488 14.9776 14.4034 14.8089 14.4034 14.6358C14.4034 14.4626 14.3488 14.2939 14.2475 14.1536C14.1461 14.0133 14.0031 13.9084 13.8388 13.854L12.4961 14.6298L13.8388 15.4175Z" fill="#0ABB92"/>
<path d="M23.0578 8.51904L21.918 9.17546C22.0564 9.33133 22.2295 9.4525 22.4233 9.52921C22.6172 9.60591 22.8263 9.63602 23.0339 9.61708C23.2457 9.63868 23.4596 9.60746 23.6564 9.52624C23.8532 9.44501 24.0269 9.31631 24.1618 9.15161L23.0578 8.51904Z" fill="#0ABB92"/>
<path d="M0.667969 27.986L22.0141 40.315L32.6125 34.2042V23.7311L11.2724 15.1497L0.667969 17.5009V27.986Z" fill="#0ABB92"/>
<path d="M32.6125 23.7365L22.0141 29.8473L0.667969 17.5183L11.2724 11.4075L32.6125 23.7365Z" fill="#66E3C4"/>
<path d="M26.4328 20.1576L15.8284 26.2624L7.62891 21.5779L18.2333 15.467L26.4328 20.1576Z" fill="white"/>
<path d="M15.4417 36.6264L15.4536 26.016L7.25412 21.3254L7.24219 31.9358L15.4417 36.6264Z" fill="#66E3C4"/>
<path d="M31.2563 22.9553C31.1024 23.0233 30.9694 23.1309 30.8708 23.2673C30.7722 23.4036 30.7116 23.5637 30.6953 23.7311C30.7151 23.9031 30.7811 24.0665 30.8861 24.2041C30.9911 24.3417 31.1314 24.4484 31.2921 24.5129L32.6348 23.743L31.2563 22.9553Z" fill="#0ABB92"/>
<path d="M22.0095 29.8483L23.6625 28.8935C23.4618 28.6678 23.2109 28.4924 22.93 28.3815C22.6491 28.2706 22.346 28.2273 22.0453 28.255C21.7388 28.2239 21.4294 28.2686 21.1443 28.3851C20.8592 28.5017 20.6071 28.6865 20.4102 28.9233L22.0095 29.8483Z" fill="#0ABB92"/>
<path d="M2.24537 18.4255C2.42294 18.3474 2.57637 18.2233 2.68971 18.0658C2.80305 17.9084 2.87216 17.7235 2.88987 17.5304C2.87017 17.3331 2.79771 17.1447 2.68011 16.9851C2.5625 16.8255 2.40409 16.7005 2.2215 16.6233L0.669922 17.5184L2.24537 18.4255Z" fill="#0ABB92"/>
<path d="M11.2443 11.4075L10.0508 12.0937C10.3666 12.3979 10.788 12.5678 11.2264 12.5678C11.6648 12.5678 12.0862 12.3979 12.402 12.0937L11.2443 11.4075Z" fill="#0ABB92"/>
<defs>
<clipPath id="clip0_7315_44777">
<rect width="12.5993" height="18.172" fill="white" transform="translate(31.6992 7.79175)"/>
</clipPath>
<clipPath id="clip1_7315_44777">
<rect width="12.5993" height="18.172" fill="white" transform="translate(31.6992 0.0183105)"/>
</clipPath>
</defs>
</svg>
