<svg width="29" height="49" viewBox="0 0 29 49" fill="none" xmlns="http://www.w3.org/2000/svg">
<g clip-path="url(#clip0_7315_44864)">
<path d="M14.5039 43.1161L0 34.3809V39.7656L14.5039 48.5407" fill="#0ABB92"/>
<path d="M5.05469 13.8214L14.7368 19.6449L23.524 14.3958L13.8187 8.57227L5.05469 13.8214Z" fill="white"/>
<path d="M14.75 41.9343L23.5449 36.6931V14.4043L14.75 19.6454V41.9343Z" fill="#66E3C4"/>
<path d="M14.7522 19.644L5.05469 13.8125V36.1014L14.7522 41.9328" fill="#0ABB92"/>
<path d="M16.7031 39.2132L17.3743 38.8223V19.7324L16.7031 20.1233V39.2132Z" fill="#0ABB92"/>
<path d="M19.1484 37.721L19.8196 37.3301V18.2402L19.1484 18.6311V37.721Z" fill="#0ABB92"/>
<path d="M21.4922 36.3981L22.1479 36.0072V16.9492L21.4922 17.3401V36.3981Z" fill="#0ABB92"/>
<path d="M24 37.452V42.8367L28.9915 39.7814V34.3887" fill="#66E3C4"/>
<path d="M17.75 37.8415V43.2343L21.2217 41.1601V35.7754" fill="#66E3C4"/>
<path d="M20.8184 39.3418L14.5 43.1151V48.4998L20.8184 44.7345V39.3418Z" fill="#66E3C4"/>
<path d="M23.9954 37.4514L29.0023 34.3881L23.5479 31.1094V34.2525L21.1641 35.7522L23.9954 37.4514Z" fill="white"/>
<path d="M17.9909 37.6433L14.9205 39.4781L5.04549 33.5269V31.373L0 34.3805L14.5039 43.1158L20.8146 39.3504L17.9909 37.6433Z" fill="white"/>
<path d="M24.0031 42.8359L21.1718 41.1367L21.1641 35.752L23.9954 37.4511L24.0031 42.8359Z" fill="#0ABB92"/>
<path d="M7.57031 11.8366L14.6139 16.0886L21.0172 12.2754L13.9427 8.02344L7.57031 11.8366Z" fill="white"/>
<path d="M14.6641 18.0035L21.0597 14.1823V12.2598L14.6641 16.073V18.0035Z" fill="#66E3C4"/>
<path d="M14.6603 16.0719L7.57812 11.8359V13.7505L14.6603 18.0025" fill="#0ABB92"/>
<path d="M11.3594 10.1757L14.5456 12.0983L17.4386 10.3752L14.2447 8.47656L11.3594 10.1757Z" fill="white"/>
<path d="M14.5547 13.686L17.4477 11.9549V10.3594L14.5547 12.0825V13.686Z" fill="#66E3C4"/>
<path d="M14.5534 12.0904L11.3672 10.1758V11.7713L14.5534 13.6938" fill="#0ABB92"/>
<path d="M11.3594 8.34226L14.5456 10.2648L17.4386 8.54169L14.2447 6.61914L11.3594 8.34226Z" fill="white"/>
<path d="M14.5547 11.844L17.4477 10.1209V8.52539L14.5547 10.2485V11.844Z" fill="#66E3C4"/>
<path d="M14.5534 10.2564L11.3672 8.3418V9.93728L14.5534 11.8519" fill="#0ABB92"/>
<path d="M11.3594 6.49851L14.5456 8.42106L17.4386 6.69794L14.2447 4.77539L11.3594 6.49851Z" fill="white"/>
<path d="M14.5547 10.008L17.4477 8.28493V6.68945L14.5547 8.42055V10.008Z" fill="#66E3C4"/>
<path d="M14.5534 8.4206L11.3672 6.49805V8.09353L14.5534 10.0161" fill="#0ABB92"/>
<path d="M14.5214 7.12922L14.4751 0.5L13.7422 6.67451L14.5214 7.12922Z" fill="#0ABB92"/>
<path d="M14.5229 7.12922L14.4766 0.5L15.3638 6.72237L14.5229 7.12922Z" fill="#66E3C4"/>
<path d="M3.92969 33.4627L5.05605 32.7367V31.2051L3.92969 31.8752V33.4627Z" fill="#66E3C4"/>
<path d="M4.02773 31.9461L5.0538 31.3318V29.7363L1.28125 31.9939L14.7745 40.1309L16.0937 39.2454L4.02773 31.9461Z" fill="white"/>
<path d="M1.28896 31.9941L1.28125 33.6056L14.435 41.559L14.4427 39.9476L1.28896 31.9941Z" fill="#0ABB92"/>
<path d="M19.4803 36.9249L18.0068 36.0234L12.9922 39.0469L14.4194 39.9084L19.4803 36.9249Z" fill="white"/>
<path d="M23.5325 29.4336L23.5479 31.1168L24.898 31.9305L21.1641 34.1642L22.6453 35.0497L27.7448 32.0023L23.5325 29.4336Z" fill="white"/>
<path d="M22.6453 36.6452L21.1641 35.7597L21.1718 34.1562L22.6453 35.0497V36.6452Z" fill="#0ABB92"/>
<path d="M23.5469 32.7446L24.897 31.9389L23.5469 31.1172V32.7446Z" fill="#0ABB92"/>
<path d="M14.4453 41.5364L19.4908 38.5369V36.9414L14.453 39.9409L14.4453 41.5364Z" fill="#66E3C4"/>
<path d="M27.7633 31.9863L22.6406 35.0496V36.6371L27.7633 33.5818V31.9863Z" fill="#66E3C4"/>
</g>
<defs>
<clipPath id="clip0_7315_44864">
<rect width="29" height="48" fill="white" transform="translate(0 0.5)"/>
</clipPath>
</defs>
</svg>
