<svg width="35" height="41" viewBox="0 0 35 41" fill="none" xmlns="http://www.w3.org/2000/svg">
<path d="M10.6413 16.6492L27.7834 6.95614L17.1741 0.833496L0.015625 10.6045L10.6413 16.707V16.6492Z" fill="white"/>
<path d="M10.6407 16.6914L0.0136612 10.605L0 31.5144L10.6284 37.6169L10.6407 16.6914Z" fill="#0ABB92"/>
<path d="M10.625 37.5884L27.7971 27.8484L27.8094 6.93896L10.6373 16.6495L10.625 37.5884Z" fill="#66E3C4"/>
<path d="M16.1953 40.8344L33.3948 31.0661V20.6343L16.1953 30.373V40.8344Z" fill="#66E3C4"/>
<path d="M33.3859 20.6377L27.778 17.4058L10.625 27.1875L16.1947 30.3724L33.3859 20.6377Z" fill="white"/>
<path d="M16.1988 30.3733L10.625 27.187V37.6175L16.2015 40.8159L16.1988 30.3733Z" fill="#0ABB92"/>
<path d="M16.2031 33.429L33.3985 23.6781V20.6343L16.2031 30.3555V33.429Z" fill="#0ABB92"/>
<path d="M20.5156 15.2433V21.5123L23.8735 19.6089V13.3452L20.5156 15.2433Z" fill="#0ABB92"/>
<path d="M20.1691 15.439L16.3207 17.6151L16.3125 23.8962L20.1691 21.7094V15.439Z" fill="#0ABB92"/>
<path d="M26.0078 28.9907V35.2598L29.3657 33.355V27.0913L26.0078 28.9907Z" fill="#0ABB92"/>
<path d="M25.6612 29.1851L21.8129 31.3612L21.8047 37.6437L25.6612 35.4555V29.1851Z" fill="#0ABB92"/>
<path d="M11.0489 13.6945L24.8467 5.89275L16.6773 1.1792L2.86719 9.04407L11.0489 13.7415V13.6945Z" fill="white"/>
<path d="M11.0477 13.7279L2.8455 9.03052L2.83594 10.3375L11.0368 15.0497L11.0477 13.7279Z" fill="#0ABB92"/>
<path d="M11.0391 15.0261L24.8656 7.18542L24.8765 5.87842L11.05 13.6936L11.0391 15.0261Z" fill="#66E3C4"/>
<path d="M26.8529 14.939L26.8516 17.9842L34.021 22.0959V19.1649V19.0386L26.8529 14.939Z" fill="#0ABB92"/>
<path d="M17.8359 31.3242L35.0026 21.5707V18.5269L17.8359 28.2468V31.3242Z" fill="#66E3C4"/>
<path d="M10.6355 24.1479L10.6328 27.1932L17.8323 31.321V28.39V28.2637L10.6355 24.1479Z" fill="#0ABB92"/>
<path d="M34.9968 18.5278L27.8342 14.3999L26.8657 14.9493L33.0938 18.5211L17.8096 27.1758L11.5624 23.6389L10.6484 24.1574L17.8506 28.288L17.8315 28.2477L34.9968 18.5278Z" fill="white"/>
</svg>
