<svg width="34" height="45" viewBox="0 0 34 45" fill="none" xmlns="http://www.w3.org/2000/svg">
<path d="M29.2504 27.9884L29.222 2.65308C29.2122 2.71141 29.1889 2.76661 29.1539 2.81419C29.1189 2.86176 29.0733 2.90037 29.0207 2.92688V2.98878L10.2109 14.0434C8.88479 14.6124 9.22106 16.1005 10.2109 16.6909H10.2251C10.8272 17.0501 11.5135 17.2415 12.2135 17.2457C12.9135 17.2499 13.602 17.0666 14.2083 16.7148L29.068 8.06489L29.2504 27.9884Z" fill="#0ABB92"/>
<path d="M32.494 4.35875C32.3443 4.27159 32.1744 4.22569 32.0014 4.22569C31.8285 4.22569 31.6586 4.27159 31.5089 4.35875L12.9004 15.199C12.4455 15.4644 11.9283 15.6025 11.4024 15.5992C10.8765 15.5958 10.361 15.4511 9.9095 15.18C9.82758 15.1308 9.75977 15.061 9.71267 14.9776C9.66558 14.8941 9.64081 14.7998 9.64081 14.7038C9.64081 14.6079 9.66558 14.5135 9.71267 14.4301C9.75977 14.3466 9.82758 14.2769 9.9095 14.2276L29.0342 2.98735C29.0892 2.95505 29.1349 2.90882 29.1666 2.85326C29.1984 2.7977 29.2151 2.73475 29.2151 2.67069C29.2151 2.60662 29.1984 2.54367 29.1666 2.48811C29.1349 2.43255 29.0892 2.38632 29.0342 2.35403C28.9042 2.27743 28.7563 2.23706 28.6056 2.23706C28.4549 2.23706 28.307 2.27743 28.177 2.35403L9.42406 13.3896C9.1997 13.5228 9.01375 13.7126 8.88459 13.9401C8.75543 14.1677 8.6875 14.4252 8.6875 14.6872C8.6875 14.9492 8.75543 15.2066 8.88459 15.4342C9.01375 15.6617 9.1997 15.8515 9.42406 15.9848H9.43825C10.0344 16.3411 10.7144 16.531 11.408 16.5348C12.1015 16.5385 12.7835 16.356 13.3835 16.0062L32.5035 4.88017C32.5501 4.85266 32.5888 4.81335 32.6157 4.76616C32.6426 4.71896 32.6568 4.66552 32.6568 4.61113C32.6568 4.55674 32.6426 4.5033 32.6157 4.4561C32.5888 4.40891 32.5501 4.3696 32.5035 4.34209L32.494 4.35875Z" fill="white"/>
<path d="M32.4916 4.89673C32.5391 4.86997 32.5787 4.83092 32.6062 4.78361C32.6337 4.73631 32.6481 4.68247 32.6479 4.62769L32.6858 29.9654C32.6862 30.1245 32.6448 30.281 32.5658 30.419C32.4868 30.5569 32.373 30.6715 32.2358 30.7511L13.374 41.7509C12.5567 42.2185 11.6001 42.3773 10.6767 42.1985C10.2355 42.1142 9.81241 41.9531 9.42639 41.7223C9.22515 41.6038 9.05459 41.4392 8.92866 41.2418C8.80274 41.0444 8.72499 40.8199 8.70174 40.5866C8.69347 40.5163 8.68875 40.4455 8.68755 40.3747V14.687C8.68545 14.9492 8.75196 15.2073 8.88039 15.4355C9.00882 15.6637 9.19466 15.8539 9.41928 15.987H9.43347C10.0298 16.3429 10.7098 16.5325 11.4032 16.5363C12.0967 16.54 12.7786 16.3578 13.3787 16.0085L32.4916 4.89673Z" fill="#66E3C4"/>
<path d="M33.4067 21.9349V15.3827C33.415 15.3097 33.395 15.2364 33.3509 15.1779C33.3068 15.1193 33.242 15.0801 33.1699 15.0684L32.6797 15.0017L29.6959 16.7445C27.8228 17.8398 26.6719 19.4564 26.6719 22.0302V22.0445C26.6725 22.3894 26.7637 22.728 26.9362 23.0262C27.1088 23.3243 27.3565 23.5714 27.6545 23.7425C27.9524 23.9135 28.29 24.0024 28.633 24.0003C28.9761 23.9981 29.3125 23.9049 29.6083 23.7301L33.4067 21.9349Z" fill="white"/>
<path d="M33.4082 21.9009V15.3582L30.4268 16.9938C28.5536 18.0891 27.4004 19.7247 27.4004 22.2818C27.4009 22.6273 27.4919 22.9665 27.6642 23.2654C27.8365 23.5642 28.0841 23.8122 28.382 23.9843C28.6799 24.1564 29.0177 24.2465 29.3612 24.2457C29.7048 24.2448 30.0421 24.153 30.3392 23.9794L33.1619 22.3295C33.2366 22.2858 33.2986 22.2233 33.3418 22.1482C33.385 22.073 33.4079 21.9877 33.4082 21.9009Z" fill="#66E3C4"/>
<path d="M31.2805 21.4918C31.7105 20.5501 31.506 19.5314 30.8237 19.2165C30.1415 18.9016 29.2398 19.4097 28.8098 20.3513C28.3798 21.293 28.5843 22.3117 29.2666 22.6266C29.9488 22.9415 30.8505 22.4334 31.2805 21.4918Z" fill="white"/>
<path d="M29.7312 1.82518C29.7313 1.61819 29.6771 1.41482 29.5741 1.23562C29.471 1.05642 29.3227 0.907742 29.1442 0.804601C28.9657 0.701459 28.7633 0.647509 28.5574 0.6482C28.3515 0.648891 28.1495 0.704198 27.9717 0.808535L11.7266 10.306V15.5773C11.9903 15.5492 12.2491 15.4859 12.4962 15.3892C12.5601 15.3631 12.6241 15.3392 12.6857 15.3083C12.7472 15.2773 12.8325 15.2393 12.9035 15.1988L28.9071 5.87512L29.7312 5.39894V1.82518Z" fill="white"/>
<path d="M13.3235 11.7319L11.7227 12.7391V13.6986L13.3235 12.6867V11.7319Z" fill="#0ABB92"/>
<path d="M13.0535 14.7798C12.7504 14.5703 12.3265 14.6393 11.7819 14.987L11.7227 15.0298V15.5774C11.9863 15.5492 12.2452 15.486 12.4923 15.3893C12.5562 15.3631 12.6202 15.3393 12.6817 15.3084C12.7433 15.2774 12.8285 15.2393 12.8996 15.1989L13.2572 14.9893C13.203 14.9072 13.1339 14.8361 13.0535 14.7798Z" fill="#0ABB92"/>
<path d="M18.002 12.2296V11.432C18.002 10.5296 17.8363 9.94865 17.5284 9.68675C17.2205 9.42485 16.754 9.49152 16.1265 9.88437C15.5053 10.2629 15.0105 10.8191 14.7056 11.482C14.3744 12.2457 14.2128 13.0728 14.232 13.9057V14.4129L15.1792 13.8581V13.0272C15.1709 12.5405 15.2511 12.0563 15.4161 11.5986C15.5497 11.2505 15.7913 10.955 16.1052 10.7558C16.4249 10.5534 16.6593 10.5486 16.8156 10.7415C16.9719 10.9344 17.0358 11.3367 17.0358 11.9486V12.7819L18.002 12.2296Z" fill="#0ABB92"/>
<path d="M22.5877 9.56305V8.50592C22.5877 7.61784 22.4219 7.0488 22.114 6.79643C21.8062 6.54405 21.3397 6.6131 20.7121 7.00595C20.0948 7.38273 19.6008 7.93319 19.2913 8.58926C18.9621 9.33852 18.8004 10.1513 18.8177 10.9702V11.7463L19.7649 11.1916V10.1035C19.7582 9.62624 19.8384 9.15175 20.0017 8.70354C20.1368 8.35814 20.3783 8.06529 20.6908 7.86784C21.0105 7.66546 21.245 7.65832 21.4012 7.84641C21.5575 8.0345 21.6215 8.42735 21.6215 9.03687V10.1273L22.5877 9.56305Z" fill="#0ABB92"/>
<path d="M27.9685 0.808535L26.5879 1.61566C26.9423 2.38717 27.5859 2.98634 28.3782 3.2823C28.8116 3.43204 29.2739 3.47771 29.728 3.41564V1.82519C29.7281 1.61819 29.6739 1.41482 29.5709 1.23562C29.4678 1.05642 29.3195 0.907742 29.141 0.804601C28.9625 0.701459 28.7601 0.647509 28.5542 0.6482C28.3483 0.648891 28.1463 0.704198 27.9685 0.808535Z" fill="#66E3C4"/>
<path d="M0.408203 33.198C0.408203 37.5926 6.42619 41.1502 13.8469 41.1502C21.2676 41.1502 27.2856 37.5926 27.2856 33.198V36.6964C27.2856 41.091 21.2676 44.6486 13.8469 44.6486C6.42619 44.6486 0.408203 41.091 0.408203 36.6964V33.198Z" fill="#0ABB92"/>
<path d="M13.8469 41.1502C21.2689 41.1502 27.2856 37.5899 27.2856 33.198C27.2856 28.8062 21.2689 25.2458 13.8469 25.2458C6.42491 25.2458 0.408203 28.8062 0.408203 33.198C0.408203 37.5899 6.42491 41.1502 13.8469 41.1502Z" fill="#66E3C4"/>
<path d="M13.8479 38.9759C19.2382 38.9759 23.6079 36.3892 23.6079 33.1983C23.6079 30.0074 19.2382 27.4207 13.8479 27.4207C8.4576 27.4207 4.08789 30.0074 4.08789 33.1983C4.08789 36.3892 8.4576 38.9759 13.8479 38.9759Z" fill="white"/>
<path d="M14.1006 30.8416L14.0734 33.3573H7.43555" stroke="#0ABB92" stroke-width="1.5" stroke-linecap="round" stroke-linejoin="round"/>
</svg>
