<svg width="34" height="42" viewBox="0 0 34 42" fill="none" xmlns="http://www.w3.org/2000/svg">
<path d="M17.7093 15.5261L0 25.8965L11.4943 32.5996L29.1834 22.1218L17.7093 15.5261Z" fill="white"/>
<path d="M29.1839 22.1147L11.4902 32.5926V41.0532L29.1839 30.5351V22.1147Z" fill="#66E3C4"/>
<path d="M0.00390625 25.896V34.3365L11.4892 41.053V32.5946L0.00390625 25.896Z" fill="#0ABB92"/>
<path d="M10.375 17.865V32.0369L11.4944 32.6929V18.5165L10.375 17.865Z" fill="#0ABB92"/>
<path d="M12.5195 17.9231L11.4941 18.5142V32.6905L12.5195 32.0973V17.9231Z" fill="#66E3C4"/>
<path d="M12.5176 17.9234L11.4922 18.5145L10.375 17.8652L11.4004 17.2742L12.5176 17.9234Z" fill="white"/>
<path d="M27.0371 7.88257V22.0567L28.1543 22.7105V8.53407L27.0371 7.88257Z" fill="#0ABB92"/>
<path d="M29.1816 7.94092L28.1562 8.53421V22.7106L29.1816 22.1173V7.94092Z" fill="#66E3C4"/>
<path d="M29.1797 7.94301L28.1543 8.53407L27.0371 7.8848L28.0625 7.2915L29.1797 7.94301Z" fill="white"/>
<path d="M0 15.0554V25.9228L1.11719 26.5765V15.7069L0 15.0554Z" fill="#0ABB92"/>
<path d="M2.14287 15.1138L1.11523 15.7048V26.5767L2.14287 25.9811V15.1138Z" fill="#66E3C4"/>
<path d="M2.14258 15.1139L1.11719 15.7072L0 15.0557L1.02539 14.4646L2.14258 15.1139Z" fill="white"/>
<path d="M17.6891 2.06592L0 12.5549L11.4943 19.258L29.1834 8.76903L17.6891 2.06592Z" fill="white"/>
<path d="M29.1839 8.77344L11.4902 19.2535V21.9938L29.1839 11.478V8.77344Z" fill="#66E3C4"/>
<path d="M0.00390625 12.5569V15.2793L11.4892 21.9959V19.2533L0.00390625 12.5569Z" fill="#0ABB92"/>
<path d="M28.8217 1.92481C28.8217 1.92481 27.3105 0.971061 27.2724 0.933001C26.9948 0.709116 26.4933 0.933001 26.4933 0.933001L10.8438 10.2354L12.2609 11.3145L28.1008 1.90242L28.8217 1.92481Z" fill="white"/>
<path d="M11.5039 19.2737L29.1908 8.76226V2.55841C29.1921 2.42702 29.1583 2.29767 29.0929 2.18369C29.0275 2.06972 28.9329 1.97524 28.8189 1.91C28.7048 1.84476 28.5754 1.81112 28.444 1.81254C28.3126 1.81397 28.184 1.8504 28.0714 1.9181L12.4375 11.216C12.1537 11.3799 11.9181 11.6155 11.7542 11.8992C11.5903 12.183 11.504 12.5048 11.5039 12.8325V19.2737Z" fill="#66E3C4"/>
<path d="M10.8461 10.2466C9.96851 10.6652 9.86328 11.6996 9.86328 11.6996V18.3199L11.5021 19.2759V12.866C11.4976 12.5667 11.5645 12.2707 11.6973 12.0024C11.83 11.7341 12.0249 11.5014 12.2656 11.3235" fill="#0ABB92"/>
<path d="M18.3089 24.1121L20.5164 22.7867L15.8574 16.5806L13.6387 17.8881L18.3089 24.1121Z" fill="white"/>
<path d="M11.4043 19.1082L16.0992 25.4396L11.4737 22.2873L11.4043 19.1082Z" fill="#0ABB92"/>
<path d="M22.7338 21.4569L24.9413 20.1315L20.3046 13.9612L18.0859 15.2687L22.7338 21.4569Z" fill="white"/>
<path d="M27.1564 18.8014L29.3639 17.4782L24.7519 11.3416L22.5332 12.649L27.1564 18.8014Z" fill="white"/>
<path d="M31.5774 16.1483L33.7737 14.8296L29.1841 8.72876L26.9766 10.0295L31.5774 16.1483Z" fill="white"/>
<path d="M13.6328 17.8904L11.4141 19.1979L16.0977 25.4398L18.303 24.1144L13.6328 17.8904Z" fill="#66E3C4"/>
<path d="M20.5204 22.7846L22.7279 21.4592L18.08 15.271L15.8613 16.5785L20.5204 22.7846Z" fill="#66E3C4"/>
<path d="M24.9453 20.1291L27.1505 18.8037L22.5273 12.6514L20.3086 13.9589L24.9453 20.1291Z" fill="#66E3C4"/>
<path d="M24.7559 11.3392L29.3679 17.4737L31.5754 16.1505L26.9746 10.0317L24.7559 11.3392Z" fill="#66E3C4"/>
</svg>
