<svg width="34" height="34" viewBox="0 0 34 34" fill="none" xmlns="http://www.w3.org/2000/svg">
<path d="M24.5703 22.855V25.7837C24.5703 26.7972 25.9081 27.6177 27.5577 27.6177C29.2072 27.6177 30.5436 26.7972 30.5436 25.7837V22.2539L24.5703 22.855Z" fill="#0ABB92"/>
<path d="M2.07422 17.3538V25.8127C2.07422 27.0163 3.66226 27.9907 5.62076 27.9907C7.57925 27.9907 9.16729 27.0121 9.16729 25.8127V16.6465L2.07422 17.3538Z" fill="#0ABB92"/>
<path d="M13.4199 23.4319V31.4392C13.4199 32.5771 14.9241 33.4998 16.7749 33.4998C18.6258 33.4998 20.13 32.5771 20.13 31.4392V22.7637L13.4199 23.4319Z" fill="#0ABB92"/>
<path d="M13.4199 20.9802V28.9861C13.4199 30.1254 14.9241 31.048 16.7749 31.048C18.6258 31.048 20.13 30.1254 20.13 28.9861V20.3105L13.4199 20.9802Z" fill="#0ABB92"/>
<path d="M31.514 18.0575C30.2853 25.5559 23.7332 30.2194 14.9808 28.7865C6.22837 27.3537 -0.585121 17.9974 0.643655 10.4989C1.87243 3.00042 9.88814 -0.948717 18.347 0.993002C26.392 2.83267 32.7386 10.5548 31.514 18.0575Z" fill="#66E3C4"/>
<path d="M18.3493 0.988299C16.1887 0.482172 13.9544 0.369922 11.7539 0.656974C12.369 0.736656 12.9883 0.84571 13.6104 0.988299C21.6554 2.83216 24.8035 13.4298 24.9 21.0331C24.9238 22.8505 21.2011 28.3736 13.437 28.4519C23.976 30.9207 30.3114 25.3625 31.5094 18.057C32.741 10.5543 26.3944 2.83216 18.3493 0.988299Z" fill="#0ABB92"/>
<path d="M18.3474 0.98914C12.5502 -0.338889 6.96127 1.09957 3.62302 4.54825C3.49301 11.721 9.95842 19.9143 18.1013 21.2493C23.8608 22.1929 28.6669 20.4944 31.6305 17.0862C32.191 9.9051 26.0443 2.75332 18.3474 0.98914Z" fill="white"/>
<path d="M24.2516 12.4778C22.9389 11.133 20.1431 11.551 19.015 13.002C18.0602 14.2322 18.2545 17.6571 20.1235 18.4357C20.7484 15.7881 22.2582 13.6157 24.2362 12.4694" fill="#66E3C4"/>
<path d="M30.9639 12.6386C31.0198 12.5338 31.0743 12.4247 31.1246 12.3143C31.948 10.497 31.6712 8.60001 30.5081 8.07299C30.3691 8.01068 30.2217 7.96921 30.0706 7.94996C29.5114 7.86049 27.7011 7.98071 26.6876 8.36934C26.6629 8.37864 26.6407 8.39342 26.6225 8.41254C26.6044 8.43167 26.5908 8.45465 26.5828 8.47978C26.3297 9.25982 26.155 10.6074 26.5157 11.6573C26.8279 11.6088 27.1433 11.5836 27.4593 11.5818C28.7052 11.5881 29.9226 11.9557 30.9639 12.64" fill="white"/>
<path d="M27.4592 11.5826C28.7052 11.5889 29.9226 11.9565 30.9638 12.6408C31.0197 12.536 31.0743 12.427 31.1246 12.3165C31.948 10.4992 31.6712 8.60223 30.5081 8.07521C29.345 7.54819 27.736 8.59103 26.9126 10.4055C26.7296 10.8072 26.5962 11.2297 26.5156 11.6637C26.8276 11.6127 27.1431 11.5856 27.4592 11.5826Z" fill="#66E3C4"/>
<path d="M12.5799 1.34766C11.9977 1.66409 11.4373 2.01904 10.9023 2.41009C14.6693 3.32249 18.0336 5.44363 20.4809 8.44913C21.0505 8.03909 21.648 7.66916 22.2689 7.34198C19.7864 4.33257 16.3809 2.22567 12.5799 1.34766Z" fill="#66E3C4"/>
<path d="M20.1146 18.4314C20.7395 15.7838 22.2576 13.6156 24.2357 12.4693C24.1527 12.3742 24.0589 12.2893 23.9561 12.2162C22.8769 11.4809 21.0778 12.24 19.9357 13.9133C18.7936 15.5866 18.7432 17.5395 19.8224 18.2748C19.9141 18.3371 20.012 18.3896 20.1146 18.4314Z" fill="white"/>
<path d="M26.2969 26.0561C27.4838 26.7425 29.494 25.4844 30.7857 23.2491C32.0773 21.0138 32.1598 18.6429 30.973 17.958L29.9287 17.4086C28.6538 16.746 26.4101 17.8447 25.1534 20.0199C23.8967 22.1951 23.8422 24.3534 25.0304 25.2006L26.2969 26.0561Z" fill="white"/>
<path d="M30.7847 23.2495C32.076 21.013 32.1601 18.6442 30.9727 17.9586C29.7852 17.273 27.7758 18.5303 26.4845 20.7668C25.1933 23.0033 25.1091 25.3722 26.2966 26.0578C27.4841 26.7434 29.4934 25.4861 30.7847 23.2495Z" fill="#66E3C4"/>
<path d="M25.6594 22.7369L24.2894 22.2168C24.0098 23.5308 24.2545 24.6492 25.0317 25.2027L26.157 25.9633C25.4399 25.4181 25.2805 24.1669 25.6594 22.7369Z" fill="#66E3C4"/>
<path d="M24.1758 23.1953C24.1758 24.0732 24.4554 24.7917 25.0285 25.2013L26.1538 25.9618C25.6268 25.5606 25.4004 24.7777 25.4689 23.8229L24.1758 23.1953Z" fill="#0ABB92"/>
<path d="M27.9191 23.6005C28.1758 23.1559 28.1926 22.6849 27.9566 22.5487C27.7205 22.4124 27.3211 22.6624 27.0644 23.107C26.8077 23.5517 26.7909 24.0226 27.0269 24.1588C27.263 24.2951 27.6624 24.0451 27.9191 23.6005Z" fill="#0ABB92"/>
<path d="M30.9406 21.2489C31.1973 20.8043 31.2141 20.3334 30.9781 20.1971C30.7421 20.0609 30.3426 20.3108 30.0859 20.7555C29.8292 21.2001 29.8124 21.671 30.0485 21.8073C30.2845 21.9436 30.6839 21.6936 30.9406 21.2489Z" fill="#0ABB92"/>
</svg>
